<svg width="155" height="31" viewBox="0 0 155 31" fill="none" xmlns="http://www.w3.org/2000/svg">
<path d="M147.211 24.1357C145.536 24.1357 144.081 23.764 142.846 23.0207C141.621 22.2775 140.674 21.2515 140.004 19.9429C139.344 18.6239 139.014 17.1111 139.014 15.4047C139.014 13.6879 139.355 12.1699 140.035 10.8508C140.715 9.53178 141.658 8.49538 142.862 7.74163C144.065 6.98788 145.453 6.61101 147.023 6.61101C148.195 6.61101 149.263 6.81515 150.226 7.22343C151.2 7.62124 152.043 8.20225 152.754 8.96647C153.466 9.72022 154.016 10.631 154.403 11.6988C154.801 12.7666 155 13.9653 155 15.2948V16.4097H140.679V13.6774H152.99L151.2 14.4311C151.2 13.4785 151.032 12.6567 150.697 11.9658C150.373 11.2644 149.902 10.7252 149.284 10.3483C148.666 9.961 147.928 9.76733 147.07 9.76733C146.222 9.76733 145.489 9.961 144.872 10.3483C144.254 10.7357 143.778 11.2748 143.443 11.9658C143.108 12.6462 142.94 13.4471 142.94 14.3683V16.1271C142.94 17.1111 143.113 17.9696 143.458 18.7024C143.804 19.4352 144.301 20.0005 144.95 20.3983C145.599 20.7961 146.379 20.995 147.29 20.995C147.939 20.995 148.515 20.9008 149.017 20.7124C149.53 20.5135 149.959 20.2361 150.305 19.8801C150.65 19.5242 150.902 19.1107 151.059 18.6396L154.78 18.8123C154.55 19.8592 154.084 20.7857 153.383 21.5918C152.681 22.3874 151.802 23.0103 150.744 23.4604C149.687 23.9106 148.509 24.1357 147.211 24.1357Z" fill="url(#paint0_linear_1_12)"/>
<path d="M125.101 14.1799V23.7588H121.097V6.95648H124.991L125.007 11.212H124.332C124.855 9.72546 125.599 8.59484 126.562 7.82015C127.535 7.035 128.739 6.64242 130.173 6.64242C131.346 6.64242 132.377 6.8989 133.267 7.41187C134.157 7.91437 134.853 8.65241 135.355 9.62601C135.858 10.5996 136.109 11.7983 136.109 13.222V23.7588H132.121V13.8501C132.121 12.6358 131.822 11.7145 131.226 11.0864C130.639 10.4478 129.812 10.1285 128.744 10.1285C128.054 10.1285 127.431 10.2751 126.876 10.5682C126.321 10.8508 125.887 11.2958 125.572 11.903C125.258 12.4997 125.101 13.2587 125.101 14.1799Z" fill="url(#paint1_linear_1_12)"/>
<path d="M103.588 30.2599L103.808 27.0407L105.425 27.0721C105.844 27.1035 106.2 27.0617 106.493 26.9465C106.797 26.8418 107.053 26.6429 107.263 26.3498C107.482 26.0671 107.666 25.6798 107.812 25.1878L108.346 23.696L101.892 6.95647H106.132L109.21 15.7973C109.545 16.7604 109.848 17.7236 110.121 18.6867C110.403 19.6498 110.681 20.6182 110.953 21.5918H109.869C110.131 20.6182 110.403 19.6498 110.686 18.6867C110.979 17.7236 111.293 16.7604 111.628 15.7973L114.722 6.95647H118.899L111.455 26.3812C111.12 27.2606 110.707 27.9934 110.215 28.5796C109.733 29.1763 109.163 29.6213 108.503 29.9144C107.844 30.2075 107.079 30.3541 106.211 30.3541C105.75 30.3541 105.295 30.3436 104.844 30.3227C104.405 30.3017 103.986 30.2808 103.588 30.2599Z" fill="url(#paint2_linear_1_12)"/>
<path d="M100.667 6.95652V10.1443H90.1777V6.95652H100.667ZM93.2084 23.7588V4.71098C93.2084 3.70598 93.4125 2.86325 93.8208 2.18278C94.2291 1.50231 94.8153 0.989347 95.5796 0.643879C96.3542 0.287942 97.2755 0.109974 98.3433 0.109974C98.8877 0.109974 99.3902 0.125677 99.8508 0.157083C100.322 0.178021 100.652 0.198958 100.84 0.219896L100.652 3.40762C100.516 3.39716 100.285 3.38669 99.9607 3.37622C99.6467 3.35528 99.364 3.34481 99.1127 3.34481C98.4218 3.34481 97.9298 3.50184 97.6367 3.8159C97.3435 4.1195 97.197 4.61153 97.197 5.292V23.7588H93.2084Z" fill="url(#paint3_linear_1_12)"/>
<path d="M83.9958 23.7588V6.95647H88.0001V23.7588H83.9958ZM86.0058 4.49108C85.3358 4.49108 84.7705 4.27648 84.3099 3.84726C83.8597 3.40757 83.6347 2.87367 83.6347 2.24554C83.6347 1.60695 83.8597 1.07304 84.3099 0.643827C84.7705 0.214609 85.3306 0 85.9901 0C86.6706 0 87.2359 0.214609 87.6861 0.643827C88.1467 1.07304 88.377 1.60695 88.377 2.24554C88.377 2.87367 88.1467 3.40757 87.6861 3.84726C87.2359 4.27648 86.6758 4.49108 86.0058 4.49108Z" fill="white"/>
<path d="M80.3057 0.361176V23.7588H76.3014V0.361176H80.3057Z" fill="white"/>
<path d="M57.1436 30.3227V6.95648H61.085V9.40616H61.1793C61.4933 8.85132 61.8911 8.36976 62.3727 7.96148C62.8542 7.54273 63.4143 7.2182 64.0529 6.98789C64.702 6.75757 65.4191 6.64242 66.2042 6.64242C67.607 6.64242 68.8476 7.00359 69.9259 7.72593C71.0042 8.44827 71.8469 9.46374 72.4541 10.7723C73.0613 12.0705 73.3649 13.5989 73.3649 15.3576C73.3649 17.1164 73.0613 18.6501 72.4541 19.9586C71.8574 21.2672 71.0199 22.2827 69.9416 23.005C68.8633 23.7274 67.607 24.0886 66.1728 24.0886C65.3981 24.0886 64.6915 23.9682 64.0529 23.7274C63.4248 23.4866 62.8752 23.1516 62.4041 22.7224C61.933 22.2932 61.5352 21.7854 61.2107 21.1992H61.1478V30.3227H57.1436ZM65.1992 20.7752C66.0472 20.7752 66.7748 20.5606 67.382 20.1314C67.9996 19.6917 68.476 19.0688 68.811 18.2627C69.1564 17.4566 69.3292 16.4883 69.3292 15.3576C69.3292 14.2165 69.1564 13.2482 68.811 12.4526C68.476 11.6465 67.9996 11.0288 67.382 10.5996C66.7748 10.1704 66.0472 9.95577 65.1992 9.95577C64.3303 9.95577 63.5766 10.1808 62.938 10.631C62.3099 11.0707 61.8231 11.6936 61.4776 12.4997C61.1321 13.3058 60.9594 14.2584 60.9594 15.3576C60.9594 16.4464 61.1321 17.399 61.4776 18.2156C61.8231 19.0217 62.3151 19.6498 62.9537 20.1C63.5923 20.5501 64.3408 20.7752 65.1992 20.7752Z" fill="white"/>
<path d="M28.9722 23.7588V6.95648H32.8195L32.8509 10.7095H32.5525C32.8456 9.79874 33.2539 9.04499 33.7774 8.44827C34.3113 7.84109 34.9289 7.39093 35.6303 7.09781C36.3317 6.79421 37.0645 6.64242 37.8288 6.64242C39.1059 6.64242 40.1895 7.01406 41.0793 7.75734C41.9691 8.50062 42.5292 9.50038 42.7595 10.7566H42.257C42.4873 9.90866 42.8695 9.18108 43.4034 8.5739C43.9477 7.95624 44.602 7.47992 45.3662 7.14492C46.1409 6.80992 46.9837 6.64242 47.8944 6.64242C48.9413 6.64242 49.8835 6.87273 50.721 7.33335C51.569 7.78351 52.2337 8.45351 52.7153 9.34335C53.2073 10.2227 53.4533 11.3115 53.4533 12.6096V23.7588H49.4648V13.1906C49.4648 12.1019 49.1612 11.3062 48.554 10.8037C47.9573 10.2908 47.2401 10.0343 46.4026 10.0343C45.7327 10.0343 45.1569 10.1756 44.6753 10.4583C44.1937 10.7409 43.8169 11.1335 43.5447 11.636C43.283 12.1385 43.1521 12.7248 43.1521 13.3947V23.7588H39.2734V13.0179C39.2734 12.1071 38.9908 11.3848 38.4255 10.8508C37.8706 10.3065 37.1535 10.0343 36.2742 10.0343C35.6774 10.0343 35.1278 10.1756 34.6253 10.4583C34.1228 10.7305 33.7198 11.1387 33.4162 11.6831C33.1231 12.217 32.9765 12.8765 32.9765 13.6617V23.7588H28.9722Z" fill="white"/>
<path d="M21.2777 23.7588V6.95647H25.282V23.7588H21.2777ZM23.2877 4.49108C22.6177 4.49108 22.0524 4.27648 21.5918 3.84726C21.1416 3.40757 20.9165 2.87367 20.9165 2.24554C20.9165 1.60695 21.1416 1.07304 21.5918 0.643827C22.0524 0.214609 22.6125 0 23.272 0C23.9525 0 24.5178 0.214609 24.9679 0.643827C25.4285 1.07304 25.6589 1.60695 25.6589 2.24554C25.6589 2.87367 25.4285 3.40757 24.9679 3.84726C24.5178 4.27648 23.9577 4.49108 23.2877 4.49108Z" fill="white"/>
<path d="M9.21772 24.1357C7.32288 24.1357 5.68452 23.8268 4.30265 23.2092C2.93124 22.5811 1.8739 21.6807 1.13062 20.5082C0.387343 19.3357 0.0104687 17.9329 0 16.2998H4.0828C4.10374 17.2106 4.32359 17.9905 4.74233 18.6396C5.17155 19.2782 5.76827 19.7702 6.53249 20.1157C7.2967 20.4507 8.19702 20.6182 9.23342 20.6182C10.207 20.6182 11.0497 20.4821 11.7616 20.2099C12.484 19.9272 13.044 19.5346 13.4418 19.0322C13.8501 18.5192 14.0543 17.9225 14.0543 17.242C14.0543 16.6767 13.9025 16.1899 13.5989 15.7816C13.2953 15.3733 12.8242 15.0226 12.1856 14.7295C11.547 14.4259 10.7304 14.159 9.73592 13.9286L7.19202 13.3319C4.94124 12.8085 3.26101 12.0286 2.15132 10.9922C1.05211 9.94529 0.502499 8.60006 0.502499 6.95647C0.502499 5.55366 0.86367 4.33405 1.58601 3.29765C2.30835 2.26125 3.31335 1.45515 4.60101 0.879373C5.89913 0.293124 7.39616 0 9.09209 0C10.8194 0 12.3165 0.298359 13.5832 0.895076C14.8499 1.49179 15.834 2.33453 16.5354 3.42327C17.2472 4.51202 17.6241 5.80491 17.666 7.30194H13.6931C13.6093 6.11897 13.154 5.19249 12.3269 4.52249C11.4999 3.85249 10.4112 3.51749 9.06069 3.51749C8.20225 3.51749 7.43803 3.65882 6.76803 3.94148C6.1085 4.21366 5.5903 4.59054 5.21343 5.0721C4.84702 5.55366 4.66382 6.1085 4.66382 6.73663C4.66382 7.29147 4.82085 7.7678 5.13491 8.16561C5.44897 8.55295 5.91483 8.88795 6.53249 9.17061C7.16061 9.44279 7.94053 9.68881 8.87225 9.90865L11.1963 10.4583C12.3374 10.72 13.3424 11.0445 14.2113 11.4319C15.0802 11.8087 15.8078 12.2641 16.394 12.798C16.9907 13.3319 17.4409 13.9496 17.7445 14.651C18.0481 15.3524 18.1999 16.148 18.1999 17.0379C18.1999 18.4721 17.8387 19.7231 17.1164 20.7909C16.394 21.8587 15.3576 22.6857 14.0072 23.272C12.6672 23.8478 11.0707 24.1357 9.21772 24.1357Z" fill="white"/>
<defs>
<linearGradient id="paint0_linear_1_12" x1="123.029" y1="-1.45753" x2="123.029" y2="31.5551" gradientUnits="userSpaceOnUse">
<stop offset="0.274038" stop-color="white"/>
<stop offset="1" stop-color="#487EF8"/>
</linearGradient>
<linearGradient id="paint1_linear_1_12" x1="123.029" y1="-1.45752" x2="123.029" y2="31.5551" gradientUnits="userSpaceOnUse">
<stop offset="0.274038" stop-color="white"/>
<stop offset="1" stop-color="#487EF8"/>
</linearGradient>
<linearGradient id="paint2_linear_1_12" x1="123.03" y1="-1.45753" x2="123.03" y2="31.5551" gradientUnits="userSpaceOnUse">
<stop offset="0.274038" stop-color="white"/>
<stop offset="1" stop-color="#487EF8"/>
</linearGradient>
<linearGradient id="paint3_linear_1_12" x1="123.03" y1="-1.45748" x2="123.03" y2="31.5552" gradientUnits="userSpaceOnUse">
<stop offset="0.274038" stop-color="white"/>
<stop offset="1" stop-color="#487EF8"/>
</linearGradient>
</defs>
</svg>
